<svg width="150" height="150" viewBox="0 0 150 150" fill="none" xmlns="http://www.w3.org/2000/svg">
<path d="M138.647 73.9745L78.3105 13.6815C77.8761 13.2462 77.3601 12.9009 76.792 12.6653C76.224 12.4296 75.615 12.3083 75 12.3083C74.385 12.3083 73.776 12.4296 73.208 12.6653C72.6399 12.9009 72.1239 13.2462 71.6895 13.6815L11.3525 73.9745C9.59473 75.7323 8.59863 78.12 8.59863 80.6102C8.59863 85.7811 12.8027 89.9852 17.9736 89.9852H24.3311V133.008C24.3311 135.6 26.4258 137.695 29.0186 137.695H65.625V104.883H82.0312V137.695H120.981C123.574 137.695 125.669 135.6 125.669 133.008V89.9852H132.026C134.517 89.9852 136.904 89.0038 138.662 87.2313C142.31 83.5692 142.31 77.6366 138.647 73.9745V73.9745Z" fill="#9FE9FF"/>
</svg>
