<svg width="68" height="48" viewBox="0 0 68 48" fill="none" xmlns="http://www.w3.org/2000/svg">
<path d="M4.6173 46.1053C3.57666 46.1053 2.70497 45.7516 2.00224 45.0442C1.29705 44.3393 0.944458 43.465 0.944458 42.4211C0.944458 41.3772 1.29705 40.5028 2.00224 39.7979C2.70497 39.0906 3.57666 38.7369 4.6173 38.7369H63.3827C64.4234 38.7369 65.2951 39.0906 65.9978 39.7979C66.703 40.5028 67.0556 41.3772 67.0556 42.4211C67.0556 43.465 66.703 44.3393 65.9978 45.0442C65.2951 45.7516 64.4234 46.1053 63.3827 46.1053H4.6173ZM4.6173 27.6842C3.57666 27.6842 2.70497 27.3306 2.00224 26.6232C1.29705 25.9183 0.944458 25.0439 0.944458 24C0.944458 22.9562 1.29705 22.0806 2.00224 21.3732C2.70497 20.6683 3.57666 20.3158 4.6173 20.3158H63.3827C64.4234 20.3158 65.2951 20.6683 65.9978 21.3732C66.703 22.0806 67.0556 22.9562 67.0556 24C67.0556 25.0439 66.703 25.9183 65.9978 26.6232C65.2951 27.3306 64.4234 27.6842 63.3827 27.6842H4.6173ZM4.6173 9.2632C3.57666 9.2632 2.70497 8.91074 2.00224 8.20583C1.29705 7.49846 0.944458 6.62285 0.944458 5.57899C0.944458 4.53513 1.29705 3.65951 2.00224 2.95214C2.70497 2.24723 3.57666 1.89478 4.6173 1.89478H63.3827C64.4234 1.89478 65.2951 2.24723 65.9978 2.95214C66.703 3.65951 67.0556 4.53513 67.0556 5.57899C67.0556 6.62285 66.703 7.49846 65.9978 8.20583C65.2951 8.91074 64.4234 9.2632 63.3827 9.2632H4.6173Z" fill="white"/>
</svg>
