<svg width="150" height="150" viewBox="0 0 150 150" fill="none" xmlns="http://www.w3.org/2000/svg">
<path d="M75 37.5C70.3645 37.5 65.8331 38.8746 61.9788 41.4499C58.1246 44.0253 55.1205 47.6857 53.3466 51.9684C51.5727 56.251 51.1085 60.9635 52.0129 65.5099C52.9172 70.0564 55.1494 74.2325 58.4272 77.5103C61.705 80.7881 65.8812 83.0203 70.4276 83.9247C74.974 84.829 79.6865 84.3649 83.9692 82.5909C88.2518 80.817 91.9122 77.813 94.4876 73.9587C97.0629 70.1044 98.4375 65.573 98.4375 60.9375C98.4375 54.7215 95.9682 48.7601 91.5728 44.3647C87.1774 39.9693 81.216 37.5 75 37.5Z" fill="#9FE9FF"/>
<path d="M75 9.375C62.0206 9.375 49.3327 13.2238 38.5407 20.4348C27.7488 27.6458 19.3374 37.895 14.3704 49.8864C9.40343 61.8778 8.10384 75.0728 10.636 87.8028C13.1682 100.533 19.4183 112.226 28.5961 121.404C37.774 130.582 49.4672 136.832 62.1972 139.364C74.9272 141.896 88.1222 140.597 100.114 135.63C112.105 130.663 122.354 122.251 129.565 111.459C136.776 100.667 140.625 87.9794 140.625 75C140.605 57.6013 133.685 40.9208 121.382 28.618C109.079 16.3153 92.3988 9.39485 75 9.375V9.375ZM112.463 116.841C112.369 110.692 109.864 104.827 105.487 100.507C101.11 96.1884 95.2117 93.7616 89.0625 93.75H60.9375C54.7884 93.7616 48.8899 96.1884 44.5129 100.507C40.136 104.827 37.6309 110.692 37.5375 116.841C29.037 109.25 23.0425 99.2572 20.3477 88.1844C17.6529 77.1115 18.3849 65.4813 22.4468 54.8337C26.5087 44.1861 33.7089 35.0234 43.094 28.5589C52.479 22.0944 63.6063 18.6329 75.0024 18.6329C86.3984 18.6329 97.5257 22.0944 106.911 28.5589C116.296 35.0234 123.496 44.1861 127.558 54.8337C131.62 65.4813 132.352 77.1115 129.657 88.1844C126.962 99.2572 120.968 109.25 112.467 116.841H112.463Z" fill="#9FE9FF"/>
</svg>
